<?xml version="1.0" encoding="utf-8"?>
<!-- Generator: Adobe Illustrator 16.0.4, SVG Export Plug-In . SVG Version: 6.00 Build 0)  -->
<!DOCTYPE svg PUBLIC "-//W3C//DTD SVG 1.1//EN" "http://www.w3.org/Graphics/SVG/1.1/DTD/svg11.dtd">
<svg version="1.1" id="logo1" xmlns="http://www.w3.org/2000/svg" xmlns:xlink="http://www.w3.org/1999/xlink" x="0px" y="0px"
	 width="100" viewBox="0 0 81.441 14.335" enable-background="new 0 0 81.441 14.335" xml:space="preserve">
<g>
	<g>
		<path class="logo1" fill="#ffffff" d="M2.346,1.098v2.284h2.575V4.01H2.346v4.615c0,1.027,0.214,1.748,1.395,1.748
			c0.367,0,0.782-0.123,1.165-0.309l0.261,0.613c-0.475,0.23-0.951,0.385-1.426,0.385c-1.609,0-2.132-0.951-2.132-2.437V4.01H0
			V3.382h1.608V1.174L2.346,1.098z"/>
	</g>
	<g>
		<path class="logo1" fill="#ffffff" d="M7.357,3.382l0.03,1.348c0.475-1.025,1.548-1.425,2.514-1.425c0.567-0.015,1.119,0.138,1.626,0.444
			l-0.338,0.613C10.791,4.118,10.347,4.01,9.901,4.01C8.492,4.025,7.402,5.159,7.402,6.539v4.416h-0.75V3.382H7.357z"/>
	</g>
	<g>
		<path class="logo1" fill="#ffffff" d="M19.329,3.382c0,2.529,0,5.042,0,7.573h-0.751V9.345c-0.736,1.18-1.87,1.732-3.097,1.732
			c-2.115,0-3.847-1.596-3.847-3.91c0-2.314,1.731-3.878,3.847-3.878c1.227,0,2.469,0.567,3.097,1.747V3.382H19.329z M12.385,7.168
			c0,1.9,1.38,3.173,3.097,3.173c4.216,0,4.216-6.332,0-6.332C13.765,4.01,12.385,5.268,12.385,7.168z"/>
	</g>
	<g>
		<path class="logo1" fill="#ffffff" d="M26.564,4.761c-0.768-0.674-1.518-0.798-2.361-0.798c-1.18-0.015-2.315,0.431-2.283,1.396
			c0.029,1.013,1.349,1.211,2.299,1.381c1.35,0.229,3.205,0.459,3.127,2.221c-0.045,1.67-1.777,2.117-3.111,2.117
			c-1.335,0-2.652-0.506-3.312-1.518l0.553-0.492c0.629,0.904,1.764,1.289,2.775,1.289c0.92,0,2.314-0.246,2.36-1.441
			c0.03-1.089-1.227-1.303-2.468-1.502c-1.473-0.245-2.928-0.521-2.943-2.039c-0.016-1.486,1.471-2.131,3.004-2.115
			c1.104,0,2.069,0.307,2.821,1.012L26.564,4.761z"/>
	</g>
	<g>
		<path class="logo1" fill="#ffffff" d="M29.736,0.223v4.569c0.613-1.088,1.671-1.502,2.729-1.518c2.114,0,3.173,1.364,3.173,3.342v4.338h-0.735
			V6.616c0-1.563-0.735-2.621-2.438-2.621c-1.595,0-2.698,1.227-2.698,2.804v4.156h-0.751V0.223H29.736z"/>
	</g>
	<g>
		<path class="logo1" fill="#ffffff" d="M44.758,3.151c0,1.104-0.674,1.962-1.746,2.3c1.349,0.367,2.116,1.456,2.116,2.697
			c0,2.208-2.055,2.806-3.895,2.806c-1.564,0-2.835,0-4.4,0V0.223c1.548,0,2.836,0,4.4,0C43.042,0.223,44.758,1.112,44.758,3.151z
			 M37.662,5.083h3.678c1.289,0,2.638-0.397,2.638-1.932c0-1.563-1.41-2.224-2.744-2.224h-3.571V5.083z M37.662,10.158h3.571
			c1.351,0,3.083-0.322,3.083-2.025c-0.018-1.67-1.532-2.268-2.977-2.268c-1.287,0-2.39,0-3.678,0V10.158z"/>
		<path class="logo1" fill="#ffffff" d="M41.233,11.177H36.61V0h4.623c2.769,0,3.751,1.697,3.751,3.151c0,0.987-0.512,1.821-1.364,2.285
			c1.067,0.5,1.729,1.514,1.729,2.712C45.35,10.074,43.852,11.177,41.233,11.177z M37.057,10.73h4.177
			c1.371,0,3.669-0.334,3.669-2.582c0-1.203-0.746-2.154-1.948-2.482l-0.736-0.199l0.727-0.229c0.997-0.313,1.591-1.094,1.591-2.086
			c0-1.996-1.779-2.705-3.302-2.705h-4.177V10.73z M41.233,10.38h-3.795v-4.74h3.901c1.537,0,3.182,0.655,3.198,2.49
			C44.538,9.582,43.363,10.38,41.233,10.38z M37.885,9.935h3.349c1.897,0,2.858-0.607,2.858-1.802
			c-0.018-1.896-2.111-2.046-2.752-2.046h-3.455V9.935z M41.34,5.306h-3.901V0.705h3.795c1.476,0,2.968,0.756,2.968,2.446
			C44.201,4.541,43.187,5.306,41.34,5.306z M37.885,4.859h3.455c1.1,0,2.414-0.297,2.414-1.708c0-1.477-1.356-2-2.521-2h-3.349
			V4.859z"/>
	</g>
	<g>
		<path class="logo1" fill="#ffffff" d="M53.069,10.955V9.589c-0.583,1.041-1.642,1.473-2.7,1.488c-2.023,0-3.418-1.242-3.418-3.342v-4.37h0.752
			V7.72c0,1.715,1.058,2.637,2.695,2.622c1.565-0.016,2.652-1.195,2.652-2.76V3.365h0.753v7.589H53.069z"/>
		<path class="logo1" fill="#ffffff" d="M50.371,11.3h-0.002c-2.212,0-3.643-1.4-3.643-3.565V3.143h1.198V7.72c0,1.524,0.887,2.397,2.435,2.397
			h0.037c1.41-0.012,2.432-1.08,2.432-2.536V3.143h1.197v8.035h-1.182v-0.902C52.248,10.919,51.381,11.287,50.371,11.3L50.371,11.3z
			 M47.176,3.59v4.146c0,1.922,1.223,3.118,3.193,3.118c0.652-0.01,1.85-0.201,2.504-1.373l0.418-0.746v1.996h0.288V3.59h-0.304
			v3.991c0,1.713-1.211,2.967-2.874,2.983h-0.042c-1.802,0-2.881-1.062-2.881-2.844V3.59H47.176z"/>
	</g>
	<g>
		<path class="logo1" fill="#ffffff" d="M63.045,0.223v10.732h-0.734V9.283c-0.63,1.15-1.87,1.795-3.16,1.795c-2.114,0-3.783-1.395-3.783-3.91
			c0-2.498,1.687-3.909,3.802-3.909c1.302,0,2.528,0.552,3.142,1.778V0.223H63.045z M56.1,7.168c0,2.101,1.396,3.173,3.1,3.173
			c1.777,0,3.097-1.303,3.097-3.188c0-1.886-1.351-3.174-3.097-3.174C57.496,3.979,56.1,5.037,56.1,7.168z"/>
		<path class="logo1" fill="#ffffff" d="M59.15,11.3c-2.396,0-4.008-1.66-4.008-4.132c0-2.472,1.617-4.133,4.026-4.133
			c1.222,0,2.247,0.448,2.92,1.253V0h1.179v11.177h-1.179V9.996C61.383,10.814,60.314,11.3,59.15,11.3z M59.169,3.481
			c-2.142,0-3.58,1.482-3.58,3.687c0,2.238,1.399,3.685,3.562,3.685c1.264,0,2.397-0.641,2.965-1.678l0.419-0.767v2.322h0.288V0.446
			h-0.288v5.537l-0.423-0.847C61.584,4.085,60.513,3.481,59.169,3.481z M59.199,10.564c-2.018,0-3.322-1.332-3.322-3.396
			c0-2.074,1.305-3.413,3.322-3.413c1.922,0,3.318,1.43,3.318,3.398C62.518,9.128,61.121,10.564,59.199,10.564z M59.199,4.203
			c-1.391,0-2.873,0.777-2.873,2.965c0,1.791,1.127,2.949,2.873,2.949c1.689,0,2.872-1.219,2.872-2.963
			C62.071,5.442,60.863,4.203,59.199,4.203z"/>
	</g>
	<g>
		<path class="logo1" fill="#ffffff" d="M72.473,0.223v10.732h-0.734V9.283c-0.631,1.15-1.871,1.795-3.16,1.795c-2.115,0-3.785-1.395-3.785-3.91
			c0-2.498,1.688-3.909,3.803-3.909c1.301,0,2.529,0.552,3.143,1.778V0.223H72.473z M65.529,7.168c0,2.101,1.395,3.173,3.096,3.173
			c1.779,0,3.099-1.303,3.099-3.188c0-1.886-1.352-3.174-3.099-3.174C66.924,3.979,65.529,5.037,65.529,7.168z"/>
		<path class="logo1" fill="#ffffff" d="M68.578,11.3c-2.396,0-4.008-1.66-4.008-4.132c0-2.472,1.617-4.133,4.025-4.133
			c1.221,0,2.248,0.448,2.918,1.253V0h1.182v11.177h-1.182V9.996C70.81,10.814,69.742,11.3,68.578,11.3z M68.596,3.481
			c-2.141,0-3.58,1.482-3.58,3.687c0,2.238,1.4,3.685,3.562,3.685c1.262,0,2.397-0.641,2.965-1.678l0.418-0.766v2.321h0.289V0.446
			h-0.289v5.537l-0.424-0.847C71.012,4.085,69.938,3.481,68.596,3.481z M68.625,10.564c-2.016,0-3.32-1.332-3.32-3.396
			c0-2.074,1.305-3.413,3.32-3.413c1.924,0,3.32,1.43,3.32,3.398C71.945,9.128,70.549,10.564,68.625,10.564z M68.625,4.203
			c-1.389,0-2.871,0.777-2.871,2.965c0,1.791,1.126,2.949,2.871,2.949c1.692,0,2.873-1.219,2.873-2.963
			C71.498,5.442,70.291,4.203,68.625,4.203z"/>
	</g>
	<g>
		<path class="logo1" fill="#ffffff" d="M81.104,3.382l-4.615,10.731h-0.799l1.398-3.25l-3.036-7.481h0.811l1.764,4.476l0.89,2.193l0.873-2.208
			l1.902-4.46H81.104z"/>
		<path class="logo1" fill="#ffffff" d="M76.637,14.335h-1.285l1.492-3.477L73.72,3.158h1.296l1.818,4.618l0.68,1.672l0.667-1.688l1.964-4.603
			h1.297L76.637,14.335z M76.031,13.89h0.311l4.422-10.286h-0.324l-1.846,4.324l-1.075,2.721L76.42,7.941l-1.707-4.337h-0.33
			l2.945,7.258L76.031,13.89z"/>
	</g>
</g>
</svg>
