<?xml version="1.0" encoding="utf-8"?>
<!-- Generator: Adobe Illustrator 16.0.4, SVG Export Plug-In . SVG Version: 6.00 Build 0)  -->
<!DOCTYPE svg PUBLIC "-//W3C//DTD SVG 1.1//EN" "http://www.w3.org/Graphics/SVG/1.1/DTD/svg11.dtd">
<svg version="1.1" id="logo2" xmlns="http://www.w3.org/2000/svg" xmlns:xlink="http://www.w3.org/1999/xlink" x="0px" y="0px"
	 width="123.441px" height="75.928px" viewBox="0 0 123.441 75.928" enable-background="new 0 0 123.441 75.928"
	 xml:space="preserve">
<g>
	<g>
		<g>
			<g>
				<g>
					<path class="logo2" fill="#FFB546" d="M82.508,13.529c0,0,0-6.765-3.383-6.765h-6.766L69.824,0H54.605l-2.539,6.764h-6.766
						c-3.381,0-3.381,6.765-3.381,6.765h20.291H82.508z M57.139,3.382h10.146l1.693,3.382H55.447L57.139,3.382z"/>
				</g>
				<g>
					<path class="logo2" fill="#FFB546" d="M48.311,42.459c0.205,1.856,1.889,3.361,3.756,3.361h20.293c1.869,0,3.551-1.505,3.756-3.361
						l3.01-27.079H45.301L48.311,42.459z"/>
				</g>
			</g>
		</g>
	</g>
	<g>
		<g>
			<g>
				<path class="logo2" fill="#F4D2A8" d="M3.557,55.864v3.463h3.904v0.951H3.557v6.995c0,1.557,0.324,2.649,2.115,2.649
					c0.557,0,1.184-0.188,1.764-0.466l0.395,0.929c-0.717,0.35-1.439,0.583-2.158,0.583c-2.441,0-3.232-1.441-3.232-3.695v-6.995H0
					v-0.951h2.439v-3.348L3.557,55.864z"/>
			</g>
			<g>
				<path class="logo2" fill="#F4D2A8" d="M11.154,59.327l0.045,2.042c0.719-1.554,2.348-2.159,3.811-2.159c0.859-0.023,1.695,0.208,2.465,0.673
					l-0.512,0.929c-0.605-0.371-1.279-0.535-1.953-0.535c-2.137,0.024-3.787,1.742-3.787,3.833v6.692h-1.139V59.327H11.154z"/>
			</g>
			<g>
				<path class="logo2" fill="#F4D2A8" d="M29.299,59.327c0,3.833,0,7.642,0,11.477H28.16v-2.438c-1.115,1.788-2.834,2.625-4.693,2.625
					c-3.205,0-5.832-2.417-5.832-5.925c0-3.508,2.627-5.878,5.832-5.878c1.859,0,3.742,0.86,4.693,2.648v-2.508H29.299z
					 M18.773,65.065c0,2.88,2.092,4.811,4.693,4.811c6.391,0,6.391-9.597,0-9.597C20.865,60.278,18.773,62.185,18.773,65.065z"/>
			</g>
			<g>
				<path class="logo2" fill="#F4D2A8" d="M40.266,61.417c-1.162-1.021-2.301-1.209-3.58-1.209c-1.787-0.023-3.508,0.652-3.461,2.115
					c0.045,1.534,2.045,1.835,3.486,2.092c2.045,0.348,4.855,0.696,4.738,3.368c-0.068,2.531-2.693,3.207-4.717,3.207
					c-2.021,0-4.02-0.767-5.02-2.3l0.838-0.745c0.953,1.372,2.672,1.953,4.205,1.953c1.395,0,3.51-0.371,3.58-2.184
					c0.045-1.651-1.859-1.975-3.742-2.277c-2.23-0.372-4.438-0.789-4.461-3.09c-0.023-2.253,2.23-3.23,4.553-3.206
					c1.674,0,3.137,0.464,4.277,1.533L40.266,61.417z"/>
			</g>
			<g>
				<path class="logo2" fill="#F4D2A8" d="M45.072,54.539v6.925c0.932-1.648,2.533-2.277,4.139-2.3c3.205,0,4.809,2.068,4.809,5.065v6.575h-1.115
					v-6.575c0-2.37-1.115-3.973-3.693-3.973c-2.418,0-4.092,1.86-4.092,4.25v6.297h-1.137V54.539H45.072z"/>
			</g>
			<g>
				<path class="logo2" fill="#F4D2A8" d="M67.84,58.977c0,1.674-1.02,2.975-2.646,3.486c2.045,0.557,3.209,2.207,3.209,4.089
					c0,3.346-3.113,4.252-5.902,4.252c-2.371,0-4.299,0-6.67,0V54.539c2.346,0,4.299,0,6.67,0
					C65.24,54.539,67.84,55.886,67.84,58.977z M57.086,61.906h5.576c1.953,0,3.996-0.604,3.996-2.929c0-2.37-2.137-3.37-4.158-3.37
					h-5.414V61.906z M57.086,69.597H62.5c2.045,0,4.672-0.488,4.672-3.068c-0.025-2.531-2.322-3.437-4.51-3.437
					c-1.951,0-3.623,0-5.576,0V69.597z"/>
				<path class="logo2" fill="#F4D2A8" d="M62.5,71.144h-7.008V54.201H62.5c4.195,0,5.684,2.573,5.684,4.776c0,1.497-0.773,2.761-2.066,3.464
					c1.617,0.758,2.621,2.295,2.621,4.111C68.738,69.47,66.469,71.144,62.5,71.144z M56.17,70.465h6.33
					c2.078,0,5.559-0.508,5.559-3.914c0-1.823-1.129-3.265-2.951-3.763l-1.115-0.302l1.102-0.347c1.51-0.475,2.41-1.658,2.41-3.163
					c0-3.025-2.697-4.1-5.004-4.1h-6.33V70.465z M62.5,69.934h-5.752V62.75h5.914c2.328,0,4.822,0.993,4.846,3.774
					C67.508,68.725,65.729,69.934,62.5,69.934z M57.424,69.258H62.5c2.875,0,4.33-0.919,4.33-2.73
					c-0.025-2.875-3.197-3.101-4.168-3.101h-5.238V69.258z M62.662,62.243h-5.914v-6.974H62.5c2.236,0,4.498,1.146,4.498,3.708
					C66.998,61.083,65.461,62.243,62.662,62.243z M57.424,61.566h5.238c1.666,0,3.658-0.45,3.658-2.589
					c0-2.238-2.057-3.031-3.82-3.031h-5.076V61.566z"/>
			</g>
			<g>
				<path class="logo2" fill="#F4D2A8" d="M80.439,70.804v-2.067c-0.885,1.578-2.49,2.231-4.094,2.253c-3.066,0-5.182-1.882-5.182-5.065v-6.624
					h1.141v6.601c0,2.601,1.604,3.996,4.086,3.973c2.373-0.023,4.02-1.812,4.02-4.184v-6.391h1.143v11.502H80.439z"/>
				<path class="logo2" fill="#F4D2A8" d="M76.348,71.33h-0.002c-3.352,0-5.52-2.124-5.52-5.405v-6.961h1.816v6.938
					c0,2.311,1.344,3.634,3.689,3.634h0.057c2.135-0.02,3.684-1.639,3.684-3.844v-6.728h1.816v12.18h-1.793v-1.369
					c-0.902,0.977-2.217,1.533-3.746,1.555H76.348z M71.506,59.643v6.283c0,2.914,1.852,4.725,4.84,4.726
					c0.99-0.014,2.803-0.305,3.795-2.081l0.635-1.133v3.027h0.438V59.643H80.75v6.049c0,2.596-1.836,4.496-4.354,4.521h-0.064
					c-2.73,0-4.367-1.611-4.367-4.31v-6.26H71.506z"/>
			</g>
			<g>
				<path class="logo2" fill="#F4D2A8" d="M95.561,54.539v16.265h-1.115v-2.533c-0.953,1.742-2.834,2.719-4.791,2.719
					c-3.203,0-5.732-2.114-5.732-5.925c0-3.786,2.557-5.924,5.764-5.924c1.973,0,3.832,0.836,4.76,2.695v-7.297H95.561z
					 M85.031,65.065c0,3.184,2.117,4.811,4.697,4.811c2.695,0,4.695-1.975,4.695-4.833c0-2.858-2.049-4.811-4.695-4.811
					C87.148,60.232,85.031,61.835,85.031,65.065z"/>
				<path class="logo2" fill="#F4D2A8" d="M89.654,71.33c-3.631,0-6.072-2.518-6.072-6.265c0-3.746,2.449-6.263,6.104-6.263
					c1.85,0,3.404,0.679,4.426,1.898v-6.499h1.785v16.942h-1.785v-1.792C93.039,70.591,91.42,71.33,89.654,71.33z M89.686,59.478
					c-3.248,0-5.428,2.247-5.428,5.587c0,3.392,2.121,5.586,5.396,5.586c1.916,0,3.637-0.973,4.494-2.542l0.637-1.164v3.521h0.436
					V54.877h-0.436v8.393l-0.643-1.284C93.344,60.393,91.721,59.478,89.686,59.478z M89.729,70.212
					c-3.057,0-5.033-2.019-5.033-5.147c0-3.143,1.977-5.172,5.033-5.172c2.914,0,5.031,2.166,5.031,5.15
					C94.76,68.038,92.643,70.212,89.729,70.212z M89.729,60.571c-2.107,0-4.354,1.179-4.354,4.494c0,2.715,1.707,4.471,4.354,4.471
					c2.561,0,4.355-1.847,4.355-4.493C94.084,62.45,92.252,60.571,89.729,60.571z"/>
			</g>
			<g>
				<path class="logo2" fill="#F4D2A8" d="M109.848,54.539v16.265h-1.113v-2.533c-0.955,1.742-2.834,2.719-4.789,2.719
					c-3.207,0-5.738-2.114-5.738-5.925c0-3.786,2.559-5.924,5.764-5.924c1.975,0,3.836,0.836,4.764,2.695v-7.297H109.848z
					 M99.324,65.065c0,3.184,2.115,4.811,4.691,4.811c2.697,0,4.699-1.975,4.699-4.833c0-2.858-2.049-4.811-4.699-4.811
					C101.439,60.232,99.324,61.835,99.324,65.065z"/>
				<path class="logo2" fill="#F4D2A8" d="M103.945,71.33c-3.633,0-6.074-2.518-6.074-6.265c0-3.746,2.451-6.263,6.1-6.263
					c1.854,0,3.408,0.679,4.424,1.898v-6.499h1.791v16.942h-1.791v-1.792C107.328,70.591,105.709,71.33,103.945,71.33z
					 M103.971,59.478c-3.244,0-5.424,2.247-5.424,5.587c0,3.392,2.121,5.586,5.398,5.586c1.912,0,3.635-0.973,4.494-2.542
					l0.633-1.162v3.518h0.439V54.877h-0.439v8.392l-0.641-1.283C107.633,60.393,106.008,59.478,103.971,59.478z M104.016,70.212
					c-3.053,0-5.031-2.019-5.031-5.147c0-3.143,1.979-5.172,5.031-5.172c2.916,0,5.035,2.166,5.035,5.15
					C109.051,68.038,106.932,70.212,104.016,70.212z M104.016,60.571c-2.105,0-4.352,1.179-4.352,4.494
					c0,2.715,1.709,4.471,4.352,4.471c2.566,0,4.355-1.847,4.355-4.493C108.371,62.45,106.541,60.571,104.016,60.571z"/>
			</g>
			<g>
				<path class="logo2" fill="#F4D2A8" d="M122.93,59.327l-6.996,16.264h-1.211l2.121-4.926l-4.602-11.337h1.229l2.674,6.784l1.348,3.323
					l1.322-3.347l2.885-6.76H122.93z"/>
				<path class="logo2" fill="#F4D2A8" d="M116.16,75.928h-1.947l2.262-5.268l-4.734-11.673h1.963l2.756,7l1.029,2.534l1.014-2.559l2.977-6.976
					h1.963L116.16,75.928z M115.242,75.253h0.471l6.703-15.589h-0.492l-2.797,6.554l-1.629,4.123l-1.668-4.104l-2.586-6.573h-0.5
					l4.465,11.002L115.242,75.253z"/>
			</g>
		</g>
	</g>
</g>
</svg>
