<?xml version="1.0" encoding="utf-8"?>
<!-- Generator: Adobe Illustrator 16.0.4, SVG Export Plug-In . SVG Version: 6.00 Build 0)  -->
<!DOCTYPE svg PUBLIC "-//W3C//DTD SVG 1.1//EN" "http://www.w3.org/Graphics/SVG/1.1/DTD/svg11.dtd">
<svg version="1.1" id="Layer_1" xmlns="http://www.w3.org/2000/svg" xmlns:xlink="http://www.w3.org/1999/xlink" x="0px" y="0px"
	 width="25.781px" height="25.782px" viewBox="0 0 25.781 25.782" enable-background="new 0 0 25.781 25.782" xml:space="preserve">
<g>
	<g>
		<path fill="#75706A" d="M12.891,25.782C5.781,25.782,0,19.999,0,12.891C0,5.783,5.781,0,12.891,0
			c7.107,0,12.891,5.783,12.891,12.891C25.781,20,19.998,25.782,12.891,25.782z M12.891,2.864c-5.529,0-10.027,4.499-10.027,10.026
			c0,5.529,4.498,10.026,10.027,10.026c5.527,0,10.027-4.498,10.027-10.026C22.918,7.363,18.418,2.864,12.891,2.864z"/>
	</g>
	<path fill="#75706A" d="M12.891,17.781c0.791,0,1.432,0.642,1.432,1.432c0,0.791-0.641,1.433-1.432,1.433s-1.432-0.642-1.432-1.433
		C11.459,18.423,12.1,17.781,12.891,17.781z"/>
	<g>
		<path fill="#75706A" d="M12.891,16.717c-0.791,0-1.432-0.641-1.432-1.432V6.651c0-0.79,0.641-1.432,1.432-1.432
			s1.432,0.642,1.432,1.432v8.634C14.322,16.076,13.682,16.717,12.891,16.717z"/>
	</g>
</g>
</svg>
