<?xml version="1.0" encoding="utf-8"?>
<!-- Generator: Adobe Illustrator 16.0.4, SVG Export Plug-In . SVG Version: 6.00 Build 0)  -->
<!DOCTYPE svg PUBLIC "-//W3C//DTD SVG 1.1//EN" "http://www.w3.org/Graphics/SVG/1.1/DTD/svg11.dtd">
<svg version="1.1" id="Layer_1" xmlns="http://www.w3.org/2000/svg" xmlns:xlink="http://www.w3.org/1999/xlink" x="0px" y="0px"
	 width="25.661px" height="25.661px" viewBox="0 0 25.661 25.661" enable-background="new 0 0 25.661 25.661" xml:space="preserve">
<g>
	<path fill="#75706A" d="M12.845,25.661H12.84c-1.471,0-2.766-0.922-3.273-2.261c-0.644-0.2-1.271-0.46-1.871-0.777
		c-0.453,0.208-0.947,0.315-1.453,0.315c-0.933,0-1.81-0.362-2.47-1.021c-1.046-1.042-1.31-2.611-0.718-3.92
		c-0.318-0.6-0.581-1.226-0.782-1.87C0.93,15.625,0.004,14.331,0,12.857c-0.002-1.474,0.918-2.771,2.258-3.28
		c0.199-0.644,0.459-1.271,0.774-1.872C2.436,6.399,2.693,4.828,3.734,3.781c0.662-0.665,1.543-1.03,2.48-1.03
		c0.5,0,0.989,0.104,1.439,0.308C8.253,2.74,8.879,2.478,9.521,2.276c0.502-1.345,1.795-2.271,3.27-2.276
		c1.479,0,2.772,0.919,3.281,2.256c0.645,0.198,1.271,0.456,1.873,0.771C18.4,2.818,18.896,2.71,19.406,2.71
		c0.93,0,1.805,0.36,2.465,1.016c1.047,1.041,1.314,2.609,0.726,3.919c0.319,0.598,0.583,1.223,0.785,1.867
		c1.345,0.5,2.273,1.792,2.279,3.267v0.039c0,0.005,0,0.009,0,0.014c0,1.475-0.923,2.769-2.265,3.274
		c-0.2,0.645-0.461,1.271-0.779,1.872c0.596,1.307,0.334,2.876-0.709,3.921c-0.661,0.662-1.54,1.026-2.475,1.026l0,0
		c-0.504,0-0.996-0.106-1.447-0.312c-0.6,0.318-1.227,0.58-1.869,0.781C15.613,24.734,14.318,25.66,12.845,25.661z M7.66,20.463
		l0.508,0.3c0.748,0.441,1.548,0.773,2.377,0.986l0.57,0.146l0.109,0.577c0.149,0.773,0.828,1.334,1.615,1.334v0.927l0.002-0.927
		c0.789-0.001,1.467-0.563,1.614-1.337l0.109-0.578l0.569-0.147c0.83-0.214,1.629-0.548,2.377-0.99l0.507-0.302l0.488,0.333
		c0.272,0.186,0.594,0.284,0.927,0.284l0,0c0.438,0,0.852-0.172,1.162-0.481c0.559-0.559,0.641-1.438,0.195-2.089l-0.334-0.488
		l0.301-0.508c0.443-0.748,0.776-1.548,0.99-2.376l0.146-0.57l0.577-0.11c0.765-0.146,1.322-0.812,1.335-1.59l-0.003-0.031
		l0.003-0.063c-0.013-0.776-0.574-1.442-1.342-1.586l-0.578-0.107l-0.149-0.569c-0.218-0.832-0.554-1.631-0.998-2.373l-0.303-0.507
		l0.331-0.489c0.442-0.653,0.356-1.531-0.204-2.088c-0.548-0.544-1.458-0.623-2.089-0.188l-0.488,0.334l-0.509-0.299
		c-0.747-0.439-1.548-0.771-2.38-0.981l-0.568-0.146l-0.113-0.576c-0.149-0.771-0.828-1.33-1.613-1.33
		c-0.795,0.002-1.473,0.565-1.617,1.34l-0.108,0.578l-0.569,0.148c-0.83,0.217-1.629,0.551-2.373,0.995L7.628,5.22L7.139,4.889
		C6.506,4.458,5.596,4.543,5.051,5.091C4.493,5.65,4.413,6.529,4.859,7.18l0.334,0.487L4.895,8.176
		c-0.44,0.748-0.771,1.549-0.984,2.379l-0.145,0.569l-0.577,0.111c-0.774,0.149-1.334,0.83-1.332,1.618
		c0.001,0.788,0.565,1.467,1.339,1.613l0.578,0.109l0.146,0.568c0.216,0.83,0.55,1.629,0.994,2.375l0.301,0.507l-0.332,0.489
		c-0.443,0.652-0.359,1.53,0.199,2.088c0.548,0.546,1.457,0.626,2.09,0.193L7.66,20.463z"/>
	<path fill="#75706A" d="M12.831,18.929c-3.362,0-6.098-2.735-6.098-6.099c0-3.362,2.735-6.098,6.098-6.098s6.098,2.736,6.098,6.098
		C18.929,16.192,16.193,18.929,12.831,18.929z M12.831,8.588c-2.34,0-4.243,1.903-4.243,4.242c0,2.34,1.903,4.243,4.243,4.243
		s4.243-1.903,4.243-4.243S15.171,8.588,12.831,8.588z"/>
</g>
</svg>
