<?xml version="1.0" encoding="utf-8"?>
<!-- Generator: Adobe Illustrator 16.0.4, SVG Export Plug-In . SVG Version: 6.00 Build 0)  -->
<!DOCTYPE svg PUBLIC "-//W3C//DTD SVG 1.1//EN" "http://www.w3.org/Graphics/SVG/1.1/DTD/svg11.dtd">
<svg version="1.1" id="Layer_1" xmlns="http://www.w3.org/2000/svg" xmlns:xlink="http://www.w3.org/1999/xlink" x="0px" y="0px"
	 width="20.451px" height="25.566px" viewBox="0 0 20.451 25.566" enable-background="new 0 0 20.451 25.566" xml:space="preserve">
<g>
	<rect x="9.203" y="6.647" fill="#75706A" width="2.045" height="15.851"/>
	<rect x="13.293" y="6.647" fill="#75706A" width="2.047" height="15.851"/>
	<rect x="5.113" y="6.647" fill="#75706A" width="2.045" height="15.851"/>
	<path fill="#75706A" d="M17.385,2.557h-1.791V2.302C15.594,0.925,14.566,0,13.037,0H7.414C5.885,0,4.857,0.925,4.857,2.302v0.255
		H3.068C1.375,2.557,0,3.933,0,5.624h1.021v16.874c0,1.691,1.377,3.068,3.068,3.068h2.557h7.158h2.557
		c1.691,0,3.068-1.377,3.068-3.068V5.624h1.021C20.451,3.933,19.076,2.557,17.385,2.557z M6.391,2.302
		c0-0.51,0.344-0.769,1.023-0.769h5.623c0.68,0,1.023,0.259,1.023,0.769v0.255h-7.67V2.302z M16.361,23.521h-2.557H6.646H4.09
		c-0.564,0-1.021-0.458-1.021-1.022V5.624h14.316v16.874C17.385,23.062,16.926,23.521,16.361,23.521z"/>
</g>
</svg>
